<svg xmlns="http://www.w3.org/2000/svg" width="1100" height="420" viewBox="0 0 1100 420" role="img" aria-labelledby="title desc">
  <title id="title">Key fleet trends from FY2005 to FY2024</title>
  <desc id="desc">Three panels: consolidation, modernization, and persistent heterogeneity in Japan's incineration fleet.</desc>
  <defs>
    <style>
      .bg { fill: #fcfcfb; stroke: #d0d7de; stroke-width: 1.5; rx: 28; }
      .title { font: 700 24px Helvetica, Arial, sans-serif; fill: #1a1a1a; }
      .panel-title { font: 700 18px Helvetica, Arial, sans-serif; fill: #1a1a1a; }
      .box-title { font: 700 16px Helvetica, Arial, sans-serif; fill: #1a1a1a; }
      .box-text { font: 400 15px Helvetica, Arial, sans-serif; fill: #1a1a1a; }
      .blue { fill: #e3f2fd; stroke: #1565c0; stroke-width: 2; rx: 12; }
      .green { fill: #c8e6c9; stroke: #2e7d32; stroke-width: 2; rx: 12; }
      .red { fill: #ffcdd2; stroke: #c62828; stroke-width: 2; rx: 12; }
      .panel { fill: #fbfbfb; stroke: #d0d7de; stroke-width: 1.5; rx: 18; }
      .arrow { stroke: #4b5563; stroke-width: 3; fill: none; marker-end: url(#arrowhead); }
    </style>
    <marker id="arrowhead" markerWidth="10" markerHeight="10" refX="8" refY="3" orient="auto">
      <polygon points="0 0, 10 3, 0 6" fill="#4b5563" />
    </marker>
  </defs>

  <rect x="8" y="8" width="1084" height="404" class="bg" />

  <text x="40" y="40" class="title">Key Fleet Trends (FY2005 to FY2024)</text>

  <rect x="30" y="65" width="320" height="315" class="panel" />
  <text x="50" y="95" class="panel-title">Consolidation</text>
  <rect x="55" y="130" width="115" height="90" class="blue" />
  <text x="112.5" y="162" text-anchor="middle" class="box-title">1,318 facilities</text>
  <text x="112.5" y="190" text-anchor="middle" class="box-text">(FY2005)</text>
  <rect x="205" y="130" width="115" height="90" class="blue" />
  <text x="262.5" y="162" text-anchor="middle" class="box-title">1,014 facilities</text>
  <text x="262.5" y="190" text-anchor="middle" class="box-text">(FY2024)</text>
  <path d="M170 175 L205 175" class="arrow" />
  <rect x="90" y="255" width="200" height="90" class="blue" />
  <text x="190" y="287" text-anchor="middle" class="box-title">23% decline</text>
  <text x="190" y="315" text-anchor="middle" class="box-text">about 15 closures per year</text>

  <rect x="390" y="65" width="320" height="315" class="panel" />
  <text x="410" y="95" class="panel-title">Modernization</text>
  <rect x="415" y="130" width="115" height="90" class="green" />
  <text x="472.5" y="162" text-anchor="middle" class="box-title">21.6% generating</text>
  <text x="472.5" y="190" text-anchor="middle" class="box-text">(FY2005)</text>
  <rect x="565" y="130" width="115" height="90" class="green" />
  <text x="622.5" y="162" text-anchor="middle" class="box-title">41.1% generating</text>
  <text x="622.5" y="190" text-anchor="middle" class="box-text">(FY2024)</text>
  <path d="M530 175 L565 175" class="arrow" />
  <rect x="450" y="255" width="190" height="90" class="green" />
  <text x="545" y="287" text-anchor="middle" class="box-title">Share nearly doubled</text>
  <text x="545" y="315" text-anchor="middle" class="box-text">but still far from universal</text>

  <rect x="750" y="65" width="320" height="315" class="panel" />
  <text x="770" y="95" class="panel-title">Heterogeneity Persists</text>
  <rect x="820" y="130" width="180" height="120" class="red" />
  <text x="910" y="162" text-anchor="middle" class="box-title">598 facilities</text>
  <text x="910" y="190" text-anchor="middle" class="box-text">still generate no electricity</text>
  <text x="910" y="218" text-anchor="middle" class="box-text">(59% of active fleet)</text>
  <rect x="805" y="275" width="210" height="70" class="red" />
  <text x="910" y="305" text-anchor="middle" class="box-title">The fleet is not monolithic</text>
  <text x="910" y="328" text-anchor="middle" class="box-text">transition remains uneven</text>
</svg>
