<svg xmlns="http://www.w3.org/2000/svg" width="1100" height="520" viewBox="0 0 1100 520" role="img" aria-labelledby="title desc">
  <title id="title">Incineration thesis analysis pipeline</title>
  <desc id="desc">Four-stage pipeline from MOE survey download through parsing, enrichment, and analysis outputs.</desc>
  <defs>
    <style>
      .title { font: 700 24px Helvetica, Arial, sans-serif; fill: #163a1d; }
      .group-title { font: 700 18px Helvetica, Arial, sans-serif; fill: #1a1a1a; }
      .box-title { font: 700 15px Helvetica, Arial, sans-serif; fill: #1a1a1a; }
      .box-text { font: 400 14px Helvetica, Arial, sans-serif; fill: #1a1a1a; }
      .frame { fill: #f7fbf7; stroke: #2e7d32; stroke-width: 2; rx: 16; }
      .card { fill: #c8e6c9; stroke: #2e7d32; stroke-width: 2; rx: 12; }
      .arrow { stroke: #355e3b; stroke-width: 3; fill: none; marker-end: url(#arrowhead); }
    </style>
    <marker id="arrowhead" markerWidth="10" markerHeight="10" refX="8" refY="3" orient="auto">
      <polygon points="0 0, 10 3, 0 6" fill="#355e3b" />
    </marker>
  </defs>

  <text x="40" y="40" class="title">Data Pipeline</text>

  <rect x="30" y="65" width="240" height="400" class="frame" />
  <text x="50" y="95" class="group-title">Stage 1: Data Collection</text>
  <rect x="50" y="120" width="200" height="110" class="card" />
  <text x="150" y="152" text-anchor="middle" class="box-title">MOE General Waste</text>
  <text x="150" y="176" text-anchor="middle" class="box-title">Treatment Survey</text>
  <text x="150" y="202" text-anchor="middle" class="box-text">(20 annual Excel files)</text>
  <rect x="50" y="275" width="200" height="110" class="card" />
  <text x="150" y="307" text-anchor="middle" class="box-title">01: Download all</text>
  <text x="150" y="332" text-anchor="middle" class="box-title">20 years</text>
  <text x="150" y="357" text-anchor="middle" class="box-text">(FY2005-FY2024)</text>
  <path d="M150 230 L150 275" class="arrow" />

  <rect x="300" y="65" width="240" height="400" class="frame" />
  <text x="320" y="95" class="group-title">Stage 2: Panel Construction</text>
  <rect x="320" y="120" width="200" height="110" class="card" />
  <text x="420" y="152" text-anchor="middle" class="box-title">02: Auto-detect</text>
  <text x="420" y="176" text-anchor="middle" class="box-title">column positions</text>
  <text x="420" y="202" text-anchor="middle" class="box-text">(format varies by year)</text>
  <rect x="320" y="275" width="200" height="110" class="card" />
  <text x="420" y="307" text-anchor="middle" class="box-title">23,599 facility-year</text>
  <text x="420" y="332" text-anchor="middle" class="box-title">observations</text>
  <text x="420" y="357" text-anchor="middle" class="box-text">2,948 unique facilities</text>
  <path d="M420 230 L420 275" class="arrow" />

  <rect x="570" y="65" width="240" height="400" class="frame" />
  <text x="590" y="95" class="group-title">Stage 3: Enrichment</text>
  <rect x="590" y="180" width="200" height="110" class="card" />
  <text x="690" y="212" text-anchor="middle" class="box-title">03: Regional grid</text>
  <text x="690" y="236" text-anchor="middle" class="box-title">emission factors</text>
  <text x="690" y="262" text-anchor="middle" class="box-text">(10 utility areas, 100% match)</text>

  <rect x="840" y="65" width="230" height="400" class="frame" />
  <text x="860" y="95" class="group-title">Stage 4: Analysis</text>
  <rect x="860" y="112" width="190" height="64" class="card" />
  <text x="955" y="140" text-anchor="middle" class="box-title">04: Exploratory analysis</text>
  <text x="955" y="162" text-anchor="middle" class="box-text">figures + sample diagnostics</text>
  <rect x="860" y="196" width="190" height="64" class="card" />
  <text x="955" y="224" text-anchor="middle" class="box-title">05a: Observed-transition</text>
  <text x="955" y="246" text-anchor="middle" class="box-text">hazard on coded fleet</text>
  <rect x="860" y="280" width="190" height="78" class="card" />
  <text x="955" y="308" text-anchor="middle" class="box-title">05: Panel regression</text>
  <text x="955" y="332" text-anchor="middle" class="box-text">Pooled OLS, Year FE, RE,</text>
  <text x="955" y="352" text-anchor="middle" class="box-text">Year FE + RE</text>
  <rect x="860" y="378" width="190" height="64" class="card" />
  <text x="955" y="406" text-anchor="middle" class="box-title">06: Robustness</text>
  <text x="955" y="428" text-anchor="middle" class="box-text">pre/post, tercile, raw DV</text>

  <path d="M250 175 L320 175" class="arrow" />
  <path d="M520 330 L590 235" class="arrow" />
  <path d="M790 235 L860 144" class="arrow" />
  <path d="M955 176 L955 196" class="arrow" />
  <path d="M955 260 L955 280" class="arrow" />
  <path d="M955 358 L955 378" class="arrow" />
</svg>
